<?xml version="1.0" encoding="UTF-8"?>
<svg width="41px" height="40px" viewBox="0 0 41 40" version="1.1" xmlns="http://www.w3.org/2000/svg" xmlns:xlink="http://www.w3.org/1999/xlink">
    <!-- Generator: Sketch 48.2 (47327) - http://www.bohemiancoding.com/sketch -->
    <title>twitter</title>
    <desc>Created with Sketch.</desc>
    <defs>
        <polygon id="path-1" points="0.8932 0 40.8932 0 40.8932 39.9998 0.8932 39.9998 0.8932 7.10542736e-15"></polygon>
    </defs>
    <g id="menus" stroke="none" stroke-width="1" fill="none" fill-rule="evenodd" transform="translate(-813.000000, -2047.000000)">
        <g id="menu-mobile" transform="translate(614.000000, 1606.000000)">
            <g id="Page-1" transform="translate(69.000000, 441.000000)">
                <g id="twitter" transform="translate(130.000000, 0.000000)">
                    <g id="Group-13">
                        <mask id="mask-2" fill="white">
                            <use xlink:href="#path-1"></use>
                        </mask>
                        <g id="Clip-12"></g>
                        <path d="M20.8932,-0.0002 C9.8472,-0.0002 0.8932,8.9548 0.8932,19.9998 C0.8932,31.0458 9.8472,39.9998 20.8932,39.9998 C31.9392,39.9998 40.8932,31.0458 40.8932,19.9998 C40.8932,8.9548 31.9392,-0.0002 20.8932,-0.0002 M20.8932,3.4998 C29.9912,3.4998 37.3932,10.9018 37.3932,19.9998 C37.3932,29.0978 29.9912,36.4998 20.8932,36.4998 C11.7942,36.4998 4.3932,29.0978 4.3932,19.9998 C4.3932,10.9018 11.7942,3.4998 20.8932,3.4998" id="Fill-11" fill="#553825" mask="url(#mask-2)"></path>
                    </g>
                    <path d="M31.1305,14.4915 C30.4315,14.7935 29.6785,14.9965 28.8895,15.0885 C29.6955,14.6195 30.3145,13.8775 30.6055,12.9925 C29.8505,13.4275 29.0165,13.7425 28.1265,13.9115 C27.4155,13.1765 26.4015,12.7175 25.2785,12.7175 C23.1255,12.7175 21.3795,14.4115 21.3795,16.5025 C21.3795,16.7995 21.4135,17.0885 21.4805,17.3665 C18.2385,17.2075 15.3625,15.6995 13.4405,13.4095 C13.1045,13.9695 12.9115,14.6185 12.9115,15.3125 C12.9115,16.6255 13.6005,17.7855 14.6465,18.4635 C14.0065,18.4435 13.4055,18.2745 12.8785,17.9895 L12.8785,18.0375 C12.8785,19.8725 14.2235,21.4025 16.0085,21.7505 C15.6815,21.8365 15.3365,21.8835 14.9815,21.8835 C14.7295,21.8835 14.4855,21.8605 14.2475,21.8155 C14.7435,23.3205 16.1845,24.4145 17.8925,24.4445 C16.5565,25.4615 14.8745,26.0655 13.0465,26.0655 C12.7315,26.0655 12.4215,26.0475 12.1145,26.0125 C13.8435,27.0875 15.8925,27.7145 18.0965,27.7145 C25.2725,27.7145 29.1955,21.9435 29.1955,16.9405 L29.1855,16.4505 C29.9455,15.9185 30.6075,15.2515 31.1305,14.4915" id="Fill-14" fill="#553825"></path>
                </g>
            </g>
        </g>
    </g>
</svg>