<?xml version="1.0" encoding="UTF-8"?>
<svg width="41px" height="40px" viewBox="0 0 41 40" version="1.1" xmlns="http://www.w3.org/2000/svg" xmlns:xlink="http://www.w3.org/1999/xlink">
    <!-- Generator: Sketch 48.2 (47327) - http://www.bohemiancoding.com/sketch -->
    <title>instagram</title>
    <desc>Created with Sketch.</desc>
    <defs>
        <polygon id="path-1" points="0.4464 0 40.4464 0 40.4464 39.9998 0.4464 39.9998 0.4464 7.10542736e-15"></polygon>
    </defs>
    <g id="menus" stroke="none" stroke-width="1" fill="none" fill-rule="evenodd" transform="translate(-748.000000, -2047.000000)">
        <g id="menu-mobile" transform="translate(614.000000, 1606.000000)">
            <g id="Page-1" transform="translate(69.000000, 441.000000)">
                <g id="instagram" transform="translate(65.000000, 0.000000)">
                    <path d="M25.4962,19.9989 C25.4962,22.7829 23.2312,25.0489 20.4462,25.0489 C17.6622,25.0489 15.3972,22.7829 15.3972,19.9989 C15.3972,19.3299 15.5312,18.6889 15.7682,18.1049 L13.0132,18.1049 L13.0132,25.6639 C13.0132,26.6409 13.8062,27.4319 14.7822,27.4319 L26.1092,27.4319 C27.0832,27.4319 27.8782,26.6409 27.8782,25.6639 L27.8782,18.1049 L25.1212,18.1049 C25.3612,18.6889 25.4962,19.3299 25.4962,19.9989 Z M27.5422,16.0239 L27.5422,13.2999 L27.5422,12.8949 L27.1352,12.8949 L24.4122,12.9039 L24.4222,16.0339 L27.5422,16.0239 Z M20.4462,23.2489 C22.2372,23.2489 23.6972,21.7909 23.6972,19.9989 C23.6972,19.2909 23.4652,18.6389 23.0822,18.1049 C22.4922,17.2859 21.5322,16.7489 20.4482,16.7489 C19.3632,16.7489 18.4042,17.2859 17.8122,18.1039 C17.4282,18.6379 17.1982,19.2909 17.1972,19.9989 C17.1952,21.7909 18.6542,23.2489 20.4462,23.2489 Z M29.6782,18.1049 L29.6782,25.6639 C29.6782,27.6319 28.0782,29.2319 26.1102,29.2319 L14.7832,29.2319 C12.8142,29.2319 11.2142,27.6319 11.2142,25.6639 L11.2142,18.1049 L11.2142,14.3359 C11.2142,12.3679 12.8142,10.7679 14.7832,10.7679 L26.1092,10.7679 C28.0782,10.7679 29.6782,12.3679 29.6782,14.3359 L29.6782,18.1049 Z" id="Fill-6" fill="#553825"></path>
                    <g id="Group-10">
                        <mask id="mask-2" fill="white">
                            <use xlink:href="#path-1"></use>
                        </mask>
                        <g id="Clip-9"></g>
                        <path d="M20.4464,-0.0002 C9.4014,-0.0002 0.4464,8.9548 0.4464,19.9998 C0.4464,31.0458 9.4014,39.9998 20.4464,39.9998 C31.4914,39.9998 40.4464,31.0458 40.4464,19.9998 C40.4464,8.9548 31.4914,-0.0002 20.4464,-0.0002 M20.4464,3.4998 C29.5444,3.4998 36.9464,10.9018 36.9464,19.9998 C36.9464,29.0978 29.5444,36.4998 20.4464,36.4998 C11.3484,36.4998 3.9464,29.0978 3.9464,19.9998 C3.9464,10.9018 11.3484,3.4998 20.4464,3.4998" id="Fill-8" fill="#553825" mask="url(#mask-2)"></path>
                    </g>
                </g>
            </g>
        </g>
    </g>
</svg>