<?xml version="1.0" encoding="UTF-8"?>
<svg width="41px" height="40px" viewBox="0 0 41 40" version="1.1" xmlns="http://www.w3.org/2000/svg" xmlns:xlink="http://www.w3.org/1999/xlink">
    <!-- Generator: Sketch 48.2 (47327) - http://www.bohemiancoding.com/sketch -->
    <title>tumblr</title>
    <desc>Created with Sketch.</desc>
    <defs>
        <polygon id="path-1" points="0.3395 0 40.3395 0 40.3395 39.9998 0.3395 39.9998 0.3395 7.10542736e-15"></polygon>
    </defs>
    <g id="menus" stroke="none" stroke-width="1" fill="none" fill-rule="evenodd" transform="translate(-879.000000, -2047.000000)">
        <g id="menu-mobile" transform="translate(614.000000, 1606.000000)">
            <g id="Page-1" transform="translate(69.000000, 441.000000)">
                <g id="tumblr" transform="translate(196.000000, 0.000000)">
                    <g id="Group-18">
                        <mask id="mask-2" fill="white">
                            <use xlink:href="#path-1"></use>
                        </mask>
                        <g id="Clip-17"></g>
                        <path d="M20.3395,-0.0002 C9.2935,-0.0002 0.3395,8.9548 0.3395,19.9998 C0.3395,31.0458 9.2935,39.9998 20.3395,39.9998 C31.3855,39.9998 40.3395,31.0458 40.3395,19.9998 C40.3395,8.9548 31.3855,-0.0002 20.3395,-0.0002 M20.3395,3.4998 C29.4385,3.4998 36.8395,10.9018 36.8395,19.9998 C36.8395,29.0978 29.4385,36.4998 20.3395,36.4998 C11.2415,36.4998 3.8395,29.0978 3.8395,19.9998 C3.8395,10.9018 11.2415,3.4998 20.3395,3.4998" id="Fill-16" fill="#553825" mask="url(#mask-2)"></path>
                    </g>
                    <path d="M20.3649,14.7708 L20.3649,10.5818 L17.6609,10.5818 C17.5999,10.7348 17.5699,10.9208 17.5699,11.1068 C17.5419,11.1988 17.5089,11.2648 17.5089,11.3548 C17.2309,12.9088 16.4249,13.9918 15.0569,14.5838 C14.6519,14.7708 14.2799,14.7988 13.8779,14.7708 L13.8779,18.1478 L15.8649,18.1478 C15.8969,22.9008 15.8969,25.3508 15.8969,25.4748 L15.8969,25.7568 C16.1459,27.8298 17.2309,29.0728 19.1549,29.5398 C19.9289,29.7548 20.7659,29.8508 21.6059,29.8508 C22.6899,29.8168 23.7459,29.6308 24.8019,29.2918 L24.8019,25.3178 C24.1839,25.5038 23.6219,25.6608 23.1259,25.8138 C22.1649,26.0948 21.3579,25.9088 20.7029,25.2888 C20.6409,25.1938 20.5509,25.0688 20.5179,24.9448 C20.4269,24.4488 20.3679,23.9218 20.3679,23.4258 L20.3679,18.1478 L24.6769,18.1478 L24.6769,14.7708 L20.3649,14.7708 Z" id="Fill-19" fill="#553825"></path>
                </g>
            </g>
        </g>
    </g>
</svg>